<svg id="Layer_1" data-name="Layer 1" xmlns="http://www.w3.org/2000/svg" xmlns:xlink="http://www.w3.org/1999/xlink" viewBox="0 0 916 367.41"><defs><style>.cls-1{fill:url(#linear-gradient);}.cls-2{fill:url(#linear-gradient-2);}.cls-3{fill:url(#linear-gradient-3);}.cls-4{fill:none;}.cls-5{fill:url(#linear-gradient-4);}.cls-6{fill:#fff;}.cls-7{opacity:0.38;}.cls-8{clip-path:url(#clip-path);}.cls-9{clip-path:url(#clip-path-2);}.cls-10{mask:url(#mask);}.cls-11{fill:url(#linear-gradient-5);}.cls-12{opacity:0.41;}.cls-13{clip-path:url(#clip-path-3);}.cls-14{clip-path:url(#clip-path-4);}.cls-15{mask:url(#mask-2);}.cls-16{fill:url(#linear-gradient-6);}.cls-17{clip-path:url(#clip-path-5);}.cls-18{clip-path:url(#clip-path-6);}.cls-19{mask:url(#mask-3);}.cls-20{fill:url(#linear-gradient-7);}</style><linearGradient id="linear-gradient" x1="-335.29" y1="987.94" x2="-334.68" y2="987.94" gradientTransform="matrix(0, -58.53, -58.53, 0, 58199.96, -19266.69)" gradientUnits="userSpaceOnUse"><stop offset="0" stop-color="gray"/><stop offset="0.21" stop-color="#5f5f5f"/><stop offset="0.57" stop-color="#2c2c2c"/><stop offset="0.85" stop-color="#0c0c0c"/><stop offset="1"/></linearGradient><linearGradient id="linear-gradient-2" x1="-332.63" y1="987.24" x2="-332.02" y2="987.24" gradientTransform="matrix(0, -122.8, -122.8, 0, 121635.67, -40406.35)" gradientUnits="userSpaceOnUse"><stop offset="0" stop-color="gray"/><stop offset="0.12" stop-color="#616161"/><stop offset="0.29" stop-color="#3e3e3e"/><stop offset="0.47" stop-color="#232323"/><stop offset="0.64" stop-color="#101010"/><stop offset="0.82" stop-color="#040404"/><stop offset="1"/></linearGradient><linearGradient id="linear-gradient-3" x1="-330.94" y1="986.36" x2="-330.33" y2="986.36" gradientTransform="matrix(316.7, 0, 0, -316.7, 105222.2, 312827.83)" gradientUnits="userSpaceOnUse"><stop offset="0" stop-color="gray"/><stop offset="0.14" stop-color="#5b5b5b"/><stop offset="0.3" stop-color="#3b3b3b"/><stop offset="0.46" stop-color="#212121"/><stop offset="0.63" stop-color="#0e0e0e"/><stop offset="0.81" stop-color="#040404"/><stop offset="1"/></linearGradient><linearGradient id="linear-gradient-4" x1="155.48" y1="486.22" x2="760.52" y2="-118.81" gradientUnits="userSpaceOnUse"><stop offset="0" stop-color="#8986c0"/><stop offset="0.05" stop-color="#8986c0"/><stop offset="0.21" stop-color="#8391bf"/><stop offset="0.49" stop-color="#75adbe"/><stop offset="0.65" stop-color="#6bc0bd"/><stop offset="0.73" stop-color="#6bbf9f"/><stop offset="0.85" stop-color="#6cbe75"/><stop offset="0.94" stop-color="#6cbd5b"/><stop offset="1" stop-color="#6cbd51"/></linearGradient><clipPath id="clip-path" transform="translate(-84.83 -228.87)"><rect class="cls-4" x="356.87" y="295.57" width="41.85" height="106.12"/></clipPath><clipPath id="clip-path-2" transform="translate(-84.83 -228.87)"><path class="cls-4" d="M398.72,347c-.1.11-.21.21-.31.33a435,435,0,0,0-17.94-45.57c-2.92-6.25-11.91-7.84-17.48-4.58-6.41,3.75-7.52,11.21-4.58,17.48,13,27.8,21.8,57.32,29.46,87-3.95-24.47,5-44.72,10.85-54.65"/></clipPath><mask id="mask" x="237.23" y="51.68" width="110.1" height="134.56" maskUnits="userSpaceOnUse"><g transform="translate(-84.83 -228.87)"><rect class="cls-1" x="338.99" y="289.85" width="76.23" height="115.96" transform="translate(-93.34 143.19) rotate(-19.18)"/></g></mask><linearGradient id="linear-gradient-5" x1="-335.29" y1="987.94" x2="-334.68" y2="987.94" gradientTransform="matrix(0, -58.53, -58.53, 0, 58199.96, -19266.69)" gradientUnits="userSpaceOnUse"><stop offset="0" stop-color="#010101"/><stop offset="1" stop-color="#010101"/></linearGradient><clipPath id="clip-path-3" transform="translate(-84.83 -228.87)"><rect class="cls-4" x="387.03" y="333.59" width="42.59" height="103.76"/></clipPath><clipPath id="clip-path-4" transform="translate(-84.83 -228.87)"><path class="cls-4" d="M422.75,333.59a35.68,35.68,0,0,0-4.79,1.13,41.2,41.2,0,0,0-19.11,12.94c-5.87,9.93-14.8,30.18-10.85,54.65l.13.51A153.38,153.38,0,0,0,398.93,437c11.55,1.63,19.72-2.35,25-6.86-1.44-3.13-2.77-6.33-3.95-9.59-1.46-4.07-3.08-8.58-4.5-13.3-.07-.41-.07-.79-.18-1.21-.73-2.93-1.55-5.84-2.31-8.76-2.33-11.35-2.44-22.94,4.09-31.92a17.41,17.41,0,0,1,7.65-6.08,10.25,10.25,0,0,1,4.87-.48,242.66,242.66,0,0,0-6.87-25.19"/></clipPath><mask id="mask-2" x="278.11" y="95.56" width="87.81" height="123.35" maskUnits="userSpaceOnUse"><g transform="translate(-84.83 -228.87)"><rect class="cls-2" x="373.75" y="330.03" width="66.17" height="112.14" transform="translate(-70.67 91.85) rotate(-11.86)"/></g></mask><linearGradient id="linear-gradient-6" x1="-332.63" y1="987.24" x2="-332.02" y2="987.24" gradientTransform="matrix(0, -122.8, -122.8, 0, 121635.67, -40406.35)" gradientUnits="userSpaceOnUse"><stop offset="0" stop-color="#010101"/><stop offset="0.02" stop-color="#010101"/><stop offset="1" stop-color="#010101"/></linearGradient><clipPath id="clip-path-5" transform="translate(-84.83 -228.87)"><rect class="cls-4" x="413.65" y="390.31" width="193.11" height="103.15"/></clipPath><clipPath id="clip-path-6" transform="translate(-84.83 -228.87)"><path class="cls-4" d="M588.42,390.31l-6.24,7.29c-24.56,28.74-52.09,61.86-91.3,69.15-13.59,2.53-29.35.7-41.63-6.29a50.45,50.45,0,0,1-11.08-8.7c-15.87,10.41-24.51,10.75-24.51,10.75a80.83,80.83,0,0,0,34.84,25.58c37.36,14.28,77.1-1.93,106.41-25.62,19.55-15.79,35.6-35.07,51.85-54.18a236.89,236.89,0,0,0-18.34-18"/></clipPath><mask id="mask-3" x="328.82" y="161.45" width="193.11" height="112.08" maskUnits="userSpaceOnUse"><g transform="translate(-84.83 -228.87)"><rect class="cls-3" x="413.65" y="390.31" width="193.11" height="112.08"/></g></mask><linearGradient id="linear-gradient-7" x1="-330.94" y1="986.36" x2="-330.33" y2="986.36" gradientTransform="matrix(316.7, 0, 0, -316.7, 105137.37, 312598.97)" gradientUnits="userSpaceOnUse"><stop offset="0" stop-color="#010101"/><stop offset="0.05" stop-color="#010101"/><stop offset="1" stop-color="#010101"/></linearGradient></defs><title>BASEETA </title><rect class="cls-5" width="916" height="367.41" rx="62.42" ry="62.42"/><polygon class="cls-6" points="267.93 282.84 257.21 293.18 257.2 305.43 267.91 295.22 267.93 282.84"/><polygon class="cls-6" points="278.66 260.25 267.95 270.58 267.93 282.84 278.65 272.63 278.67 260.25 278.66 260.25"/><path class="cls-6" d="M378.58,491.2h2.28l0,16.25-28.13,28.89,0-12.26,25.62-26.42a4.82,4.82,0,0,0,1.29-3.28c.09-2.2-.43-2.58-1.05-3.19" transform="translate(-84.83 -228.87)"/><path class="cls-6" d="M238.58,518h-8.52A12.63,12.63,0,0,1,219,525c-7.13,0-13-6.48-13-14.38v-4.12h4.63v3.57c0,5.79,3.34,10.42,8.34,10.43,4.83,0,8.28-4.49,8.29-10.4l0-19.15h4.62l0,19.7a14,14,0,0,1-.24,2.61h6.92Z" transform="translate(-84.83 -228.87)"/><path class="cls-6" d="M241,527.23h-4.51v-4.7H241Zm14.59-9.17-18.88,0v-4.79h4.38a2.83,2.83,0,0,0,2.78-1.42,7.5,7.5,0,0,0,.49-3.19V499h4.55v9.41c0,2.48-.33,4.07-1,4.87h7.7Zm-6.85,9.18h-4.51v-4.7h4.51Z" transform="translate(-84.83 -228.87)"/><path class="cls-6" d="M287.88,518.11l-33.33,0v-4.79h5.65a12.07,12.07,0,0,1-1.06-4.37c0-5,3.33-8.14,8.12-8.14s8.06,3.12,8.05,8.16a12.22,12.22,0,0,1-1.07,4.37h5.41c0-.47,0-.88,0-1.3,0-7.05-4.2-13.28-10.14-14.55l.58-4.5c8.89,1.86,14.12,9.77,14.11,20.35h3.64ZM271,508.93c0-2.65-1.51-4.41-3.76-4.42-2.42,0-3.77,1.89-3.78,4.41s1.56,4.49,3.76,4.5,3.77-2,3.77-4.49" transform="translate(-84.83 -228.87)"/><path class="cls-6" d="M286.53,518.1v-4.79h4.18c2.34,0,3.49-1.64,3.49-5V499h4.63v9.15c0,2.48-.25,4.07-.74,4.88v.25h4.26c2.34,0,3.48-1.56,3.49-4.66v-9.62h4.63v9.15c0,2.73-.33,4.45-.95,5.13H314c2.34,0,3.49-1.55,3.49-4.62v-9.66h4.63v9.07a12.29,12.29,0,0,1-1,5.21h7v4.79Z" transform="translate(-84.83 -228.87)"/><path class="cls-6" d="M330.87,495.23h-4.51v-4.67h4.5Zm7.85,15.34c0,5.09-2.31,7.6-6.85,7.59H327v-4.79h3.85c1.52,0,2.46-.45,2.91-1.38a9.28,9.28,0,0,0,.34-3v-9.87h4.58Zm-.11-15.33h-4.5v-4.67h4.5Z" transform="translate(-84.83 -228.87)"/><path class="cls-6" d="M289.5,534.23h-3.81a5.68,5.68,0,0,1-5,3,6.08,6.08,0,0,1-5.81-6.27v-1.8H277v1.56c0,2.53,1.5,4.55,3.74,4.55s3.71-2,3.71-4.55V522.4h2.07V531a6.08,6.08,0,0,1-.11,1.14h3.1Z" transform="translate(-84.83 -228.87)"/><path class="cls-6" d="M290.53,538.25h-2v-2.05h2Zm3.52-7.33c0,2.22-1,3.32-3.06,3.32h-2.16v-2.09h1.72a1.3,1.3,0,0,0,1.3-.61,4,4,0,0,0,.15-1.32v-4.31h2.06Zm-.06,7.33h-2v-2.05h2Z" transform="translate(-84.83 -228.87)"/><path class="cls-6" d="M306.21,534.23h-2.49c-.28,2-1.62,3-4,3v-1.61a1.89,1.89,0,0,0,2-1.41h-2a4.11,4.11,0,0,1-4-4.27,4,4,0,0,1,4.11-4.07A3.83,3.83,0,0,1,303.7,530v2.13h2.51Zm-4.57-2.09v-2.51a1.81,1.81,0,0,0-1.8-1.85,1.91,1.91,0,0,0-2,2.07,2.14,2.14,0,0,0,2,2.29Z" transform="translate(-84.83 -228.87)"/><path class="cls-6" d="M317.73,534.23H315.1a3.88,3.88,0,0,1-3.32,1.6,3.84,3.84,0,0,1-3.28-1.6H305.7v-2.09h2c0-.2,0-.4,0-.6a4.22,4.22,0,0,1,1.14-3,4,4,0,0,1,3-1.19,3.83,3.83,0,0,1,3,1.23,4.36,4.36,0,0,1,1.14,3.06v.53h1.84Zm-3.94-2.64a2.8,2.8,0,0,0-.5-1.67,1.89,1.89,0,0,0-1.56-.75,1.74,1.74,0,0,0-1.48.73,2.66,2.66,0,0,0-.48,1.61,2.18,2.18,0,0,0,2.07,2.4,1.75,1.75,0,0,0,1.47-.7,2.7,2.7,0,0,0,.48-1.63" transform="translate(-84.83 -228.87)"/><path class="cls-6" d="M319,524.2h-2v-2h2Zm6.57,10h-8.47v-2.09H319a1.25,1.25,0,0,0,1.23-.62,3.23,3.23,0,0,0,.22-1.39v-4.22h2V530a3.52,3.52,0,0,1-.44,2.13h3.52Zm-3.08-10h-2v-2h2Z" transform="translate(-84.83 -228.87)"/><path class="cls-6" d="M333.43,534.23H325v-2.09h1.91a1.25,1.25,0,0,0,1.23-.62,3.23,3.23,0,0,0,.22-1.39V522.4h2V530a3.52,3.52,0,0,1-.44,2.13h3.45Z" transform="translate(-84.83 -228.87)"/><path class="cls-6" d="M338.14,530.91c0,2.22-1,3.32-3.08,3.32H332.9v-2.09h1.74a1.3,1.3,0,0,0,1.3-.61,4,4,0,0,0,.15-1.32V522.4h2.05Z" transform="translate(-84.83 -228.87)"/><path class="cls-6" d="M402.94,525.41h-2.59a8.15,8.15,0,0,1-1.27,4,8,8,0,0,1-3,2.75,8.46,8.46,0,0,1-4.07,1h-.2a8.42,8.42,0,0,1-4.27-1.09,7.9,7.9,0,0,1-3-3,8.5,8.5,0,0,1-1.09-4.28v-3.35A2,2,0,0,1,384,520a1.85,1.85,0,0,1,2.68,0,2,2,0,0,1,.53,1.44v3.35a4.55,4.55,0,0,0,1.27,3.35,4.48,4.48,0,0,0,3.33,1.28h.2a4.4,4.4,0,0,0,4.63-4.63V514a2,2,0,0,1,.53-1.44,1.75,1.75,0,0,1,1.34-.57,1.72,1.72,0,0,1,1.31.57,2,2,0,0,1,.53,1.44v7.64h2.57Zm-12.11-11.94a2.14,2.14,0,0,1-1.55-.64,2.2,2.2,0,0,1,1.55-3.74,2.14,2.14,0,0,1,1.55.64,2.07,2.07,0,0,1,.66,1.53,2.1,2.1,0,0,1-.66,1.56,2.14,2.14,0,0,1-1.55.64ZM412.09,511a6.28,6.28,0,0,1,3.22.84,6.17,6.17,0,0,1,2.27,2.29,6.36,6.36,0,0,1,.84,3.24V519a6.27,6.27,0,0,1-.84,3.17,6.38,6.38,0,0,1-2.26,2.33,5.85,5.85,0,0,1-3.1.86,7.5,7.5,0,0,1-2.44-.4,7.42,7.42,0,0,1-2.13-1.13A4.8,4.8,0,0,1,406,525a4.91,4.91,0,0,1-2.06.43h-1.23l-1.62-.59v-2.57l1.62-.59H404a1.47,1.47,0,0,0,1.09-.42,1.51,1.51,0,0,0,.42-1.12v-2.76a6.44,6.44,0,0,1,.82-3.24,6,6,0,0,1,2.27-2.29,6.36,6.36,0,0,1,3.24-.84Zm2.59,6.36a2.58,2.58,0,0,0-.71-1.91,2.55,2.55,0,0,0-1.88-.71h-.28a2.59,2.59,0,0,0-1.9.71,2.55,2.55,0,0,0-.73,1.91v2.85a3.17,3.17,0,0,0,1.31,1,4.32,4.32,0,0,0,1.73.35,2.3,2.3,0,0,0,1.73-.77,2.6,2.6,0,0,0,.73-1.85v-1.59Z" transform="translate(-84.83 -228.87)"/><path class="cls-6" d="M879,350.93c-13.25-34-42.39-59.7-78.43-67.14-42.61-8.8-86.51,7.47-123.08,28.52a296.15,296.15,0,0,0-51.54,37.75c-15.92,14.5-29.78,31-43.75,47.36-24.56,28.74-52.09,61.86-91.3,69.15-13.59,2.53-29.35.7-41.63-6.29a50.5,50.5,0,0,1-11.08-8.7q2-1.57,3.82-3.3c21.58-20.13,31.46-55.32,23.25-83.22-6-20.46-24.88-37.55-47.31-30.44a41.2,41.2,0,0,0-19.11,12.94c-.1.12-.21.21-.31.33a435,435,0,0,0-17.94-45.57c-2.92-6.25-11.91-7.84-17.48-4.58-6.41,3.75-7.52,11.2-4.58,17.48,13.07,28,21.9,57.66,29.59,87.51a153.37,153.37,0,0,0,10.79,34.15l0,.06c-.24,0-.47-.12-.71-.16-13.63-2.48-25.7-11.54-35.55-20.76-13.83-12.94-27-26.55-44.95-33.6-16.4-6.42-36.6-6.59-51.7,3.36a50.67,50.67,0,0,0-22.58,43.52c1,35,37.12,58.23,69.55,45.34a76.57,76.57,0,0,0,26.24-17.88c11.55-11.72-6.5-29.8-18.07-18.07-6,6.1-13,11.16-20.41,13.17-3.9,1.05-4.48,1.06-9.07.94-.17,0-.93-.07-1.43-.11l-1.34-.24a42.67,42.67,0,0,1-5-1.46l-.5-.22c-.88-.45-1.75-.91-2.6-1.42-.68-.41-1.33-.84-2-1.28a2,2,0,0,0-.2-.12l0,0c-1.21-1-2.3-2.11-3.4-3.24l-.84-.94c-.33-.46-1-1.41-1.13-1.57a36.81,36.81,0,0,1-2.51-4.57l-.11-.35c-.25-.76-.51-1.52-.72-2.29s-.65-3-.79-3.54-.1-1.32-.11-1.5c0-1.26,0-2.51,0-3.78,0-.16.09-1,.13-1.51s.26-1.43.3-1.59a46.38,46.38,0,0,1,1.44-5l.1-.31.08-.16q.54-1.13,1.16-2.22c.51-.9,1.06-1.78,1.64-2.64l.4-.6c0,.08,0,.1.26-.21a39.15,39.15,0,0,1,3.5-3.44l.11-.1a2.25,2.25,0,0,0,.24-.15c.69-.46,1.38-.91,2.1-1.33s1.46-.81,2.21-1.19a4.62,4.62,0,0,0,.44-.24l.62-.21a40.81,40.81,0,0,1,5.72-1.52,31.86,31.86,0,0,1,3.47-.26,42.1,42.1,0,0,1,5.84.22,50.77,50.77,0,0,1,5.07,1.08,52.21,52.21,0,0,1,6.26,2c7.46,3.07,14,8.25,20,13.64,14.25,12.84,27.16,27.38,45,35.45,12.07,5.47,25.68,8.34,38.63,6.51a80.85,80.85,0,0,0,34.84,25.59c37.36,14.28,77.1-1.94,106.41-25.62,33.78-27.28,57.1-65,89.08-94.18,30.2-27.54,68.35-50.24,108.63-58.75,34.2-7.23,68.94,1.39,90.79,29.17a89.33,89.33,0,0,1,10.93,19.18c2.5,6.43,8.57,10.89,15.71,8.92,6.13-1.68,11.44-9.25,8.92-15.71M442,378.28c.07.64.13,1.39,0,0m-11.36,44.5a13.11,13.11,0,0,1-2,2.69,56.84,56.84,0,0,1-4,4.25l-.63.54c0-.08-.06-.16-.1-.24-1.44-3.13-2.77-6.32-3.95-9.59-1.46-4.07-3.08-8.58-4.5-13.3-.07-.41-.07-.79-.18-1.21-.73-2.93-1.55-5.84-2.31-8.76-2.33-11.35-2.45-22.94,4.09-31.92a17.4,17.4,0,0,1,7.65-6.08,9.89,9.89,0,0,1,7.12.1c5.4,2.6,8.1,9.34,9.52,15.52.23,1,.42,2,.6,3,0,.08,0,.24.05.41.16,1.7.28,3.4.32,5.11a83.42,83.42,0,0,1-.5,10.33c-.77,5.44-3.6,15.22-5.77,19.68a82.31,82.31,0,0,1-5.4,9.44" transform="translate(-84.83 -228.87)"/><path class="cls-6" d="M818.63,347.2c-23.35,0-23.39,36.29,0,36.29s23.39-36.29,0-36.29" transform="translate(-84.83 -228.87)"/><path class="cls-6" d="M530.26,493.16c-22.19,0-22.23,34.49,0,34.49s22.23-34.49,0-34.49" transform="translate(-84.83 -228.87)"/><path class="cls-6" d="M563.39,479.15c-22.19,0-22.23,34.49,0,34.49s22.23-34.49,0-34.49" transform="translate(-84.83 -228.87)"/><path class="cls-6" d="M221.76,404c-21,0-21,32.56,0,32.56s21-32.56,0-32.56" transform="translate(-84.83 -228.87)"/><path class="cls-6" d="M231.39,366.73c-21,0-21,32.56,0,32.56s21-32.56,0-32.56" transform="translate(-84.83 -228.87)"/><g class="cls-7"><g class="cls-8"><g class="cls-9"><g class="cls-10"><rect class="cls-11" x="338.99" y="289.85" width="76.23" height="115.96" transform="translate(-178.17 -85.68) rotate(-19.18)"/></g></g></g></g><g class="cls-12"><g class="cls-13"><g class="cls-14"><g class="cls-15"><rect class="cls-16" x="373.75" y="330.03" width="66.17" height="112.14" transform="translate(-155.49 -137.01) rotate(-11.86)"/></g></g></g></g><g class="cls-12"><g class="cls-17"><g class="cls-18"><g class="cls-19"><rect class="cls-20" x="328.82" y="161.45" width="193.11" height="112.08"/></g></g></g></g></svg>