<svg width="52" height="35" viewBox="0 0 52 35" fill="none" xmlns="http://www.w3.org/2000/svg">
<path d="M4.94734 8.66984C5.46932 9.10106 5.82116 9.71384 5.93468 10.372H3.95999L4.94734 8.66984ZM4.89072 8.36343L3.60815 10.5763H6.173C6.08202 9.66846 5.59412 8.8741 4.89072 8.36343Z" fill="#292929"/>
<path d="M1.8269 13.663C2.21255 13.8446 2.64383 13.9467 3.1092 13.9467C3.56302 13.9467 3.9943 13.8446 4.39149 13.663L3.1092 11.4502L1.8269 13.663Z" fill="#292929"/>
<path d="M3.60815 11.1664L4.89072 13.3792C5.59412 12.8799 6.08202 12.0742 6.173 11.1664H3.60815Z" fill="#292929"/>
<path d="M4.39149 8.07972C4.00557 7.89816 3.57456 7.79602 3.1092 7.79602C2.65538 7.79602 2.2241 7.89816 1.8269 8.07972L3.1092 10.2926L4.39149 8.07972Z" fill="#292929"/>
<path d="M2.56456 11.1324H0C0.0907078 12.0516 0.567336 12.8459 1.28228 13.3452L2.56456 11.1324Z" fill="#292929"/>
<path d="M2.56456 10.5536L1.28228 8.34076C0.578606 8.84007 0.0907078 9.64578 0 10.5536H2.56456Z" fill="#292929"/>
<path d="M51.3154 5.11793C51.3154 5.11793 46.9125 5.29948 46.9125 9.87273C46.9125 12.2785 46.8899 15.4673 46.8899 15.4673C46.8899 18.0546 45.1989 21.2546 41.6357 21.2546C38.0725 21.2546 36.3815 18.361 36.3815 15.4673C36.3815 12.5735 36.3815 3.10934 36.3815 3.10934L32.7843 4.53918L32.7617 15.8985C32.7617 20.1653 36.2908 23.7854 41.6357 23.7854C46.9806 23.7854 50.5097 20.1653 50.5097 15.8985C50.5097 15.8985 50.5097 12.5849 50.5097 10.6671C50.5097 7.56909 51.7695 7.14922 51.7695 7.14922L51.3154 5.11793Z" fill="#292929"/>
<path d="M27.4507 10.8827V15.4445C27.4507 18.7581 25.4648 19.5865 23.7058 19.5865C22.832 19.5865 21.6973 19.3369 21.6973 19.3369L21.1638 21.3794C21.1638 21.3794 22.2531 22.0149 24.7045 22.0149C27.1783 22.0149 31.048 20.9369 31.048 15.9665V9.45279L27.4507 10.8827Z" fill="#292929"/>
<path d="M30.0042 22.5485L28.665 24.5798L30.0042 26.6224L31.3544 24.5798L30.0042 22.5485Z" fill="#292929"/>
<path d="M14.7752 30.5602L13.4363 32.6028L14.7752 34.6341L16.1256 32.6028L14.7752 30.5602Z" fill="#292929"/>
<path d="M18.7125 30.5599L17.3733 32.6028L18.7125 34.6341L20.0514 32.6028L18.7125 30.5599Z" fill="#292929"/>
<path d="M43.0426 0L41.6921 2.04264L43.0426 4.0739L44.3818 2.04264L43.0426 0Z" fill="#292929"/>
<path d="M46.9693 0L45.6301 2.04264L46.9693 4.0739L48.3195 2.04264L46.9693 0Z" fill="#292929"/>
<path d="M22.4462 20.5058C22.4462 23.933 20.4489 26.3841 16.7497 26.3841C13.0502 26.3841 11.0529 23.933 11.0529 20.5058L11.0301 16.8404L7.43286 18.2703V20.1654C7.43286 26.3613 12.0287 28.7672 16.7497 28.7672C21.4704 28.7672 26.0663 26.3613 26.0663 20.1654L22.4462 20.5058Z" fill="#292929"/>
</svg>
