<svg class="tamara-badge lang--ar" style="display: inline;vertical-align: middle;" width="76" height="24" viewBox="0 0 85 28" fill="none" xmlns="http://www.w3.org/2000/svg">
    <g clip-path="url(#clip0_822_275)">
        <g clip-path="url(#clip1_822_275)">
            <rect width="85" height="28" fill="white"/>
            <path d="M85.0017 -0.0114746H0V28.0078H85.0017V-0.0114746Z" fill="url(#paint0_linear_822_275)"/>
            <path d="M24.5642 33.522C0.559858 24.1531 1.58625 30.9396 -10.4487 31.0323L-3.29447 -6.64008C4.70696 -10.5582 6.3207 -6.8916 29.7971 -0.629196L69.411 32.5331C59.8386 34.0317 48.5684 42.8909 24.5642 33.522Z" fill="url(#paint1_linear_822_275)" fill-opacity="0.6"/>
            <path d="M57.7001 -1.5657L-2.90323 -0.940893L-1.52902 19.1425L16.1877 19.68C26.922 18.2836 37.8119 20.8028 44.0349 26.3453L54.8776 36.0024C56.535 37.4807 58.7564 38.6901 61.3498 39.526C63.9432 40.3618 66.8307 40.7991 69.7626 40.8H124.115V25.6015C124.115 22.663 119.471 20.5663 114.895 21.439L88.4397 27.4813C85.8677 27.8219 83.1853 27.6551 80.7783 27.0049C78.3713 26.3546 76.3637 25.2545 75.0443 23.8628L57.7001 -1.5657Z" fill="url(#paint2_linear_822_275)"/>
            <ellipse cx="35.9053" cy="13.9867" rx="15.5749" ry="11.1333" fill="url(#paint3_radial_822_275)"/>
            <ellipse cx="52.5936" cy="22.6964" rx="29.2085" ry="14.12" fill="url(#paint4_radial_822_275)" fill-opacity="0.7"/>
            <ellipse rx="18.7893" ry="8.70989" transform="matrix(0.982827 0.184532 -0.44903 0.893517 54.9043 25.0454)" fill="url(#paint5_radial_822_275)" fill-opacity="0.7"/>
            <path d="M44.1918 -0.635448L-0.203339 -0.177741L0.803342 14.5344L13.7817 14.9282C21.6452 13.9052 29.6227 15.7507 34.1813 19.8108L42.1242 26.8852C43.3383 27.9681 44.9656 28.854 46.8654 29.4663C48.7652 30.0787 50.8804 30.399 53.0282 30.3997H92.8441L97.0356 11.4995C97.0356 9.34688 93.6334 7.81093 90.2817 8.45026L88.3354 -3.19112C86.4513 -2.94162 84.4864 -3.06381 82.7231 -3.54012C80.9598 -4.01643 79.4892 -4.82232 78.5226 -5.84186L44.1918 -0.635448Z" fill="url(#paint6_linear_822_275)"/>
        </g>
        <g clip-path="url(#clip2_822_275)">
            <path fill-rule="evenodd" clip-rule="evenodd" d="M23.6517 5.53283C23.6517 5.53283 23.0064 6.87595 22.7159 7.5624C22.5908 7.84785 22.5291 8.15724 22.5352 8.46904C22.5489 8.77352 22.5623 9.07805 22.5758 9.38259L22.5758 9.38277C22.668 11.4696 22.7602 13.5574 22.9134 15.6392C23.0915 18.0703 24.2842 19.8448 26.5275 20.8693C28.0958 21.5855 29.7544 21.9119 31.4582 22.0103C33.6047 22.1334 35.7563 22.1968 37.9054 22.215C41.4782 22.246 45.0239 21.9909 48.5218 21.2876C49.5996 21.1464 52.971 20.2709 53.5557 19.9523C54.1136 19.6482 54.1672 19.6632 54.5744 19.7774C54.6476 19.7979 54.7324 19.8217 54.8336 19.8473C56.4418 20.2566 60.6884 20.1556 61.9107 19.7942L62.0329 19.758C62.8024 19.5304 63.4856 19.3283 63.6597 18.7931C64.4109 19.9807 64.8304 20.5843 66.125 20.4677C67.1927 20.3716 67.4536 20.3116 68.2239 20.1344L68.224 20.1344C68.3878 20.0967 68.5745 20.0538 68.7969 20.0041C69.8553 19.7683 70.6362 19.0832 70.9537 18.047C71.1006 17.5702 71.1239 17.2782 71.1491 16.9638C71.1578 16.8555 71.1667 16.7445 71.1809 16.6223C71.3771 14.9269 71.1151 13.3196 70.1405 11.8935C70.1278 11.8749 70.1153 11.8563 70.103 11.8379L70.1028 11.8375C69.9636 11.6288 69.8372 11.4393 69.33 11.4726C69.157 11.483 68.8988 11.742 68.793 11.9505C68.6272 12.2767 68.4823 12.6132 68.3371 12.9504C68.2009 13.2667 68.0644 13.5837 67.9101 13.8933C67.7307 14.2508 67.812 14.5047 68.0921 14.7637C68.6872 15.3103 69.2357 15.8543 69.9792 16.6081C69.3239 16.6774 68.8671 16.7473 68.4449 16.8119C67.9525 16.8872 67.5073 16.9554 66.8491 17.007C65.6268 17.1028 63.3861 17.0847 62.7575 15.9708L62.6955 15.8615C62.2687 15.1077 61.9658 14.5727 61.2525 14.0436C60.0069 13.1188 57.9933 13.1253 56.3115 13.9956C55.5512 14.3842 54.751 15.1613 54.6206 16.068C54.5625 16.4759 54.4231 16.8127 53.9649 16.9306C46.9949 18.727 38.8283 19.5663 31.9667 18.7956C30.219 18.5988 28.4817 18.3099 26.8321 17.6623C25.3568 17.086 24.6908 16.0628 24.7179 14.4632C24.7601 11.9259 24.743 9.38858 24.7259 6.85127V6.85126C24.7232 6.442 24.7204 6.03275 24.7179 5.62349C24.7251 5.54686 24.7168 5.46956 24.6935 5.39624C24.6701 5.32291 24.6322 5.2551 24.5821 5.19688C24.5319 5.13866 24.4705 5.09125 24.4015 5.05749C24.3326 5.02374 24.2575 5.00436 24.1809 5.0005C23.9551 4.98107 23.6517 5.53283 23.6517 5.53283ZM61.3389 17.7698L55.639 17.7012C55.639 17.7012 56.0611 15.4411 58.3806 15.353C61.7184 15.2326 61.3389 17.7698 61.3389 17.7698ZM69.632 6.63503L69.5829 6.58581C69.423 6.42509 69.2331 6.29759 69.024 6.21059C68.8149 6.1236 68.5908 6.07882 68.3645 6.07882C68.1381 6.07882 67.914 6.1236 67.7049 6.21059C67.4958 6.29759 67.3059 6.42509 67.146 6.58581C66.986 6.74626 66.8591 6.93677 66.7725 7.14645C66.686 7.35613 66.6414 7.58087 66.6414 7.80783C66.6414 8.0348 66.686 8.25954 66.7725 8.46921C66.8591 8.67889 66.986 8.8694 67.146 9.02985L67.1963 9.08036C68.1696 10.0569 69.2615 9.45208 69.632 9.08036C69.7921 8.91989 69.9192 8.7293 70.0059 8.5195C70.0926 8.30971 70.1372 8.08481 70.1372 7.8577C70.1372 7.63058 70.0926 7.40569 70.0059 7.19589C69.9192 6.98609 69.7921 6.7955 69.632 6.63503ZM19.5665 11.5659C19.3522 11.5659 19.0412 11.786 18.9302 11.9933C18.7477 12.3421 18.5921 12.7039 18.4365 13.0658L18.4365 13.0659C18.3026 13.3772 18.1686 13.6887 18.0176 13.9918C17.8421 14.3428 17.9221 14.5513 18.1725 14.8297C18.2525 14.9195 18.3328 15.0091 18.4132 15.0988L18.4133 15.0989L18.4134 15.099L18.4136 15.0991C19.0052 15.7591 19.6007 16.4235 20.0893 17.1611C20.7527 18.1584 20.6636 19.2218 19.8169 20.0572C19.1725 20.7025 18.4274 21.238 17.611 21.6425C16.8739 21.9935 16.0988 22.2623 15.3226 22.5314C14.8674 22.6892 14.4119 22.8471 13.9634 23.0219C13.7956 23.0866 13.5336 23.3055 13.5116 23.4493C13.4419 23.9 13.691 24.0334 13.8588 24.1059C14.8875 24.5543 15.9288 24.9767 16.9941 25.4088L16.9942 25.4089L16.9942 25.4089L16.9948 25.4091C17.3755 25.5635 17.7593 25.7192 18.1467 25.8778C18.299 25.6471 18.452 25.4217 18.6035 25.1986C18.9234 24.7275 19.2363 24.2667 19.52 23.7886C21.7801 19.9846 22.2771 16.0654 20.2016 12.0127C20.0931 11.8003 19.7872 11.5697 19.5665 11.5659ZM62.0708 7.30076C62.1623 7.07713 62.2975 6.87412 62.4683 6.70368L62.5199 6.64928C62.6894 6.47916 62.8907 6.34421 63.1121 6.25214C63.3336 6.16007 63.571 6.11268 63.8107 6.11268C64.0504 6.11268 64.2878 6.16007 64.5093 6.25214C64.7307 6.34421 64.932 6.47916 65.1014 6.64928C65.4951 7.04561 66.134 8.20352 65.1014 9.23967L65.0485 9.29278C64.9398 9.40184 64.8174 9.49632 64.6845 9.57383L62.0708 7.30076ZM15.8231 5.57819C15.8467 5.65168 15.8551 5.72923 15.8479 5.80611C15.8582 7.91598 15.8595 15.252 15.8272 16.8101C15.8086 17.6055 15.6134 18.3979 15.4172 19.1939C15.3278 19.5567 15.2382 19.9202 15.1651 20.2851H14.2177C14.1969 19.8727 14.1754 19.4638 14.1541 19.0569C14.1213 18.4299 14.0887 17.8078 14.0589 17.1857C13.9789 15.5149 13.9002 13.845 13.8227 12.1759C13.7791 11.2948 13.7399 10.4138 13.7007 9.53271C13.6877 9.23903 13.6746 8.94534 13.6614 8.65166C13.6553 8.33986 13.7169 8.03048 13.8421 7.74502C14.1325 7.05986 14.7779 5.71544 14.7779 5.71544C14.7779 5.71544 15.076 5.16499 15.3071 5.18441C15.384 5.18759 15.4594 5.20644 15.5288 5.23983C15.5982 5.27322 15.66 5.32044 15.7107 5.37861C15.7613 5.43678 15.7995 5.50469 15.8231 5.57819Z" fill="black"/>
        </g>
    </g>
    <defs>
        <linearGradient id="paint0_linear_822_275" x1="0.809442" y1="24.9153" x2="67.6169" y2="-21.9312" gradientUnits="userSpaceOnUse">
            <stop offset="0.01" stop-color="#AAE1FF"/>
            <stop offset="0.427083" stop-color="#F9BD9A"/>
            <stop offset="0.51" stop-color="#FFBC8C"/>
            <stop offset="0.640625" stop-color="#FFBE92"/>
            <stop offset="0.75" stop-color="#F8BC8B"/>
            <stop offset="0.88" stop-color="#F29F7E"/>
            <stop offset="1" stop-color="#F0826B"/>
        </linearGradient>
        <linearGradient id="paint1_linear_822_275" x1="44.5334" y1="11.5594" x2="7.72128" y2="60.0486" gradientUnits="userSpaceOnUse">
            <stop stop-color="white" stop-opacity="0"/>
            <stop offset="0.463182" stop-color="#CAEDFF"/>
            <stop offset="1" stop-color="#98D6F7" stop-opacity="0"/>
        </linearGradient>
        <linearGradient id="paint2_linear_822_275" x1="18.3607" y1="0.644435" x2="32.043" y2="44.22" gradientUnits="userSpaceOnUse">
            <stop offset="0.01" stop-color="#FFE08B"/>
            <stop offset="0.130208" stop-color="#FFE294" stop-opacity="0.590397"/>
            <stop offset="0.303475" stop-color="#FFD972" stop-opacity="0"/>
        </linearGradient>
        <radialGradient id="paint3_radial_822_275" cx="0" cy="0" r="1" gradientUnits="userSpaceOnUse" gradientTransform="translate(35.9053 13.9867) rotate(90) scale(11.1333 15.5749)">
            <stop stop-color="#F8B483" stop-opacity="0.57"/>
            <stop offset="1" stop-color="#F8B483" stop-opacity="0"/>
        </radialGradient>
        <radialGradient id="paint4_radial_822_275" cx="0" cy="0" r="1" gradientUnits="userSpaceOnUse" gradientTransform="translate(52.5936 22.6964) rotate(90) scale(14.12 29.2085)">
            <stop stop-color="#EB84A4"/>
            <stop offset="0.755208" stop-color="#EB84A4" stop-opacity="0"/>
        </radialGradient>
        <radialGradient id="paint5_radial_822_275" cx="0" cy="0" r="1" gradientUnits="userSpaceOnUse" gradientTransform="translate(18.7893 8.70989) rotate(90) scale(8.70989 18.7893)">
            <stop stop-color="#EB84A4"/>
            <stop offset="0.755208" stop-color="#EB84A4" stop-opacity="0"/>
        </radialGradient>
        <linearGradient id="paint6_linear_822_275" x1="37.7014" y1="14.3344" x2="66.6693" y2="43.0222" gradientUnits="userSpaceOnUse">
            <stop offset="0.326812" stop-color="#EB84A4" stop-opacity="0"/>
            <stop offset="1" stop-color="#9881BB"/>
        </linearGradient>
        <clipPath id="clip0_822_275">
            <rect width="85" height="28" rx="8" fill="white"/>
        </clipPath>
        <clipPath id="clip1_822_275">
            <rect width="85" height="28" fill="white"/>
        </clipPath>
        <clipPath id="clip2_822_275">
            <rect width="58" height="24" fill="white" transform="translate(13.5 2)"/>
        </clipPath>
    </defs>
</svg>
